<svg width="731" height="71" viewBox="0 0 731 71" fill="none" xmlns="http://www.w3.org/2000/svg">
<path d="M22.7494 1.7505L28.5331 48.6952L50.8005 1.7505H73.5499L38.5582 69.9986H10.8927L0 1.7505H22.7494Z" fill="black" style="fill:black;fill-opacity:1;"/>
<path d="M92.9924 1.7505L80.9429 69.9986H59.5431L71.5926 1.7505H92.9924Z" fill="black" style="fill:black;fill-opacity:1;"/>
<path d="M113.165 70.6734C104.81 70.6734 98.127 69.0025 93.1144 65.6608C88.1661 62.3191 85.6919 57.435 85.6919 51.0087C85.6919 50.366 85.7562 49.4021 85.8847 48.1168H108.634C108.441 50.109 108.73 51.587 109.502 52.551C110.337 53.5149 111.687 53.9969 113.55 53.9969C114.707 53.9969 115.671 53.7077 116.442 53.1294C117.213 52.551 117.599 51.7156 117.599 50.6231C117.599 49.0807 116.828 47.7955 115.285 46.7672C113.807 45.739 111.397 44.518 108.056 43.1042C104.393 41.5619 101.372 40.0838 98.9945 38.67C96.681 37.2562 94.6567 35.3283 92.9216 32.8863C91.1865 30.4443 90.3189 27.3917 90.3189 23.7287C90.3189 18.9089 91.5078 14.7639 93.8855 11.2937C96.3276 7.75916 99.7014 5.09221 104.007 3.29283C108.313 1.49344 113.229 0.59375 118.756 0.59375C123.704 0.59375 128.106 1.36491 131.962 2.90724C135.882 4.44957 138.934 6.6988 141.119 9.65493C143.369 12.5468 144.493 15.9849 144.493 19.9693C144.493 20.4834 144.429 21.3831 144.3 22.6683H121.262C121.39 21.8972 121.455 21.3831 121.455 21.126C121.455 19.905 121.101 18.9732 120.394 18.3305C119.687 17.6236 118.723 17.2702 117.502 17.2702C116.41 17.2702 115.51 17.5915 114.803 18.2341C114.096 18.8768 113.743 19.7122 113.743 20.7404C113.743 22.1542 114.482 23.4074 115.96 24.4999C117.438 25.5281 119.784 26.8134 122.997 28.3557C126.66 30.0908 129.68 31.7295 132.058 33.2719C134.5 34.8142 136.589 36.8706 138.324 39.4412C140.059 41.9475 140.927 45.0321 140.927 48.6952C140.927 52.8723 139.802 56.6317 137.553 59.9734C135.368 63.3152 132.187 65.95 128.01 67.8779C123.832 69.7415 118.884 70.6734 113.165 70.6734Z" fill="black" style="fill:black;fill-opacity:1;"/>
<path d="M172.41 1.7505L160.36 69.9986H138.96L151.01 1.7505H172.41Z" fill="black" style="fill:black;fill-opacity:1;"/>
<path d="M196.727 70.6734C190.943 70.6734 185.866 69.4845 181.496 67.1067C177.126 64.729 173.753 61.3872 171.375 57.0816C168.997 52.7116 167.808 47.7312 167.808 42.1403C167.808 33.9788 169.479 26.7812 172.821 20.5476C176.227 14.2498 180.95 9.36575 186.991 5.89551C193.096 2.361 200.101 0.59375 208.005 0.59375C213.917 0.59375 219.059 1.78263 223.428 4.16039C227.863 6.47388 231.269 9.78346 233.646 14.0891C236.024 18.3305 237.213 23.2467 237.213 28.8377C237.213 36.9349 235.51 44.1646 232.104 50.5267C228.762 56.8888 224.007 61.8371 217.837 65.3716C211.732 68.9061 204.696 70.6734 196.727 70.6734ZM200.004 50.7195C203.346 50.7195 206.238 49.8519 208.68 48.1168C211.186 46.3174 213.082 43.9718 214.367 41.0799C215.653 38.1238 216.295 34.9427 216.295 31.5367C216.295 28.0022 215.331 25.271 213.403 23.3431C211.54 21.3509 208.841 20.3548 205.306 20.3548C201.964 20.3548 199.04 21.2224 196.534 22.9575C194.028 24.6927 192.1 27.0383 190.75 29.9944C189.465 32.8863 188.822 36.0352 188.822 39.4412C188.822 42.9757 189.754 45.739 191.618 47.7312C193.546 49.7234 196.341 50.7195 200.004 50.7195Z" fill="black" style="fill:black;fill-opacity:1;"/>
<path d="M297.951 69.9986H276.551L259.971 35.6818L253.898 69.9986H232.498L244.547 1.7505H265.947L282.431 36.6457L288.6 1.7505H310L297.951 69.9986Z" fill="black" style="fill:black;fill-opacity:1;"/>
<path d="M305.016 35.7781C306.173 29.0305 308.583 23.0218 312.246 17.7522C315.909 12.4825 320.536 8.40179 326.127 5.50993C331.718 2.55379 337.951 1.07573 344.827 1.07573C350.74 1.07573 355.817 2.20034 360.058 4.44958C364.364 6.63454 367.641 9.75133 369.89 13.7999C372.139 17.8486 373.232 22.5719 373.168 27.9701H350.611C349.969 25.7209 348.812 23.9858 347.141 22.7647C345.47 21.4795 343.414 20.8368 340.972 20.8368C337.373 20.8368 334.288 22.1864 331.718 24.8854C329.147 27.5845 327.476 31.2154 326.705 35.7781C326.448 37.0634 326.319 38.4451 326.319 39.9232C326.319 43.2649 327.123 45.8997 328.729 47.8276C330.4 49.7555 332.746 50.7195 335.766 50.7195C338.208 50.7195 340.49 50.109 342.61 48.8879C344.731 47.6027 346.498 45.8354 347.912 43.5862H370.469C368.541 48.9843 365.745 53.7077 362.082 57.7563C358.419 61.805 354.049 64.9539 348.972 67.2031C343.96 69.3881 338.497 70.4806 332.585 70.4806C326.609 70.4806 321.5 69.3881 317.258 67.2031C313.017 64.9539 309.804 61.805 307.619 57.7563C305.434 53.6435 304.341 48.8879 304.341 43.4898C304.341 40.855 304.566 38.2844 305.016 35.7781Z" fill="black" style="fill:black;fill-opacity:1;"/>
<path d="M412.298 59.6843H389.548L384.343 69.9986H361.883L398.899 1.7505H423.576L436.396 69.9986H413.84L412.298 59.6843ZM409.984 43.5862L407.189 24.5963L397.645 43.5862H409.984Z" fill="black" style="fill:black;fill-opacity:1;"/>
<path d="M528.593 1.7505L516.543 69.9986H495.24L501.216 36.0673L484.733 69.9986H466.418L461.887 35.7781L455.911 69.9986H434.511L446.56 1.7505H472.78L480.588 42.815L502.47 1.7505H528.593Z" fill="black" style="fill:black;fill-opacity:1;"/>
<path d="M549.913 18.7161L548.467 27.1989H569.674L566.782 43.297H545.575L543.84 52.9366H567.939L564.951 69.9986H519.452L531.501 1.7505H577L574.012 18.7161H549.913Z" fill="black" style="fill:black;fill-opacity:1;"/>
<path d="M610.128 1.7505C617.454 1.7505 623.013 3.38922 626.804 6.66668C630.596 9.94413 632.491 14.3141 632.491 19.7765C632.491 21.3831 632.363 22.829 632.106 24.1143C631.27 28.7413 629.278 32.822 626.129 36.3565C622.98 39.8268 618.9 42.333 613.887 43.8754L624.105 69.9986H600.584L592.005 45.5141L587.667 69.9986H566.268L578.317 1.7505H610.128ZM594.512 31.2476H602.994C605.051 31.2476 606.657 30.7977 607.814 29.898C609.035 28.9341 609.838 27.456 610.224 25.4638C610.288 25.1425 610.32 24.7248 610.32 24.2107C610.32 22.7969 609.871 21.7044 608.971 20.9332C608.071 20.0978 606.754 19.6801 605.019 19.6801H596.536L594.512 31.2476Z" fill="black" style="fill:black;fill-opacity:1;"/>
<path d="M669.693 59.6843H646.943L641.738 69.9986H619.278L656.294 1.7505H680.971L693.792 69.9986H671.235L669.693 59.6843ZM667.379 43.5862L664.584 24.5963L655.04 43.5862H667.379Z" fill="black" style="fill:black;fill-opacity:1;"/>
<path d="M708.555 0C712.732 0 716.459 0.931824 719.737 2.79547C723.079 4.59486 725.649 7.13327 727.448 10.4107C729.312 13.6239 730.244 17.3191 730.244 21.4962C730.244 25.6091 729.312 29.3043 727.448 32.5817C725.649 35.8592 723.079 38.4297 719.737 40.2934C716.459 42.0927 712.732 42.9924 708.555 42.9924C704.378 42.9924 700.618 42.0927 697.277 40.2934C693.999 38.4297 691.429 35.8592 689.565 32.5817C687.701 29.3043 686.77 25.6091 686.77 21.4962C686.77 17.3191 687.701 13.6239 689.565 10.4107C691.429 7.13327 693.999 4.59486 697.277 2.79547C700.618 0.931824 704.378 0 708.555 0ZM708.555 36.7267C713.118 36.7267 716.749 35.3129 719.448 32.4853C722.211 29.6577 723.593 25.9947 723.593 21.4962C723.593 16.9335 722.211 13.2705 719.448 10.5071C716.749 7.67951 713.118 6.26571 708.555 6.26571C703.928 6.26571 700.233 7.64738 697.469 10.4107C694.77 13.1741 693.421 16.8692 693.421 21.4962C693.421 25.9947 694.802 29.6577 697.566 32.4853C700.329 35.3129 703.992 36.7267 708.555 36.7267ZM718.291 17.6404C718.291 18.9257 717.97 20.0824 717.327 21.1106C716.749 22.0746 715.913 22.8458 714.821 23.4241L719.351 31.3286H711.061L707.495 24.2917H707.013V31.3286H699.301V11.0855H710.868C713.118 11.0855 714.917 11.696 716.267 12.917C717.616 14.0738 718.291 15.6482 718.291 17.6404ZM706.723 19.6647H709.037C709.872 19.6647 710.29 19.247 710.29 18.4116C710.29 17.5761 709.872 17.1584 709.037 17.1584H706.723V19.6647Z" fill="black" style="fill:black;fill-opacity:1;"/>
</svg>
