<svg width="1090" height="378" viewBox="0 0 1090 378" fill="none" xmlns="http://www.w3.org/2000/svg">
<rect x="60.4531" y="83.4258" width="182.355" height="182.355" rx="30" fill="#E7205D"/>
<circle cx="152" cy="310.816" r="18.457" fill="#E7205D"/>
<path d="M397.912 243.208C384.787 243.208 372.888 240.387 362.216 234.744C351.667 228.979 343.325 221.067 337.192 211.008C331.181 200.827 328.176 189.357 328.176 176.6C328.176 163.843 331.181 152.435 337.192 142.376C343.325 132.195 351.667 124.283 362.216 118.64C372.888 112.875 384.848 109.992 398.096 109.992C409.259 109.992 419.317 111.955 428.272 115.88C437.349 119.805 444.955 125.448 451.088 132.808L431.952 150.472C423.243 140.413 412.448 135.384 399.568 135.384C391.595 135.384 384.48 137.163 378.224 140.72C371.968 144.155 367.061 149 363.504 155.256C360.069 161.512 358.352 168.627 358.352 176.6C358.352 184.573 360.069 191.688 363.504 197.944C367.061 204.2 371.968 209.107 378.224 212.664C384.48 216.099 391.595 217.816 399.568 217.816C412.448 217.816 423.243 212.725 431.952 202.544L451.088 220.208C444.955 227.691 437.349 233.395 428.272 237.32C419.195 241.245 409.075 243.208 397.912 243.208ZM578.745 133.4V241H549.145V228.2C545.012 232.867 540.079 236.467 534.345 239C528.612 241.4 522.412 242.6 515.745 242.6C501.612 242.6 490.412 238.533 482.145 230.4C473.879 222.267 469.745 210.2 469.745 194.2V133.4H500.945V189.6C500.945 206.933 508.212 215.6 522.745 215.6C530.212 215.6 536.212 213.2 540.745 208.4C545.279 203.467 547.545 196.2 547.545 186.6V133.4H578.745ZM714.45 133.4L669.05 241H636.85L591.65 133.4H623.85L653.65 206.6L684.45 133.4H714.45ZM829.652 187.6C829.652 188 829.452 190.8 829.052 196H747.652C749.118 202.667 752.585 207.933 758.052 211.8C763.518 215.667 770.318 217.6 778.452 217.6C784.052 217.6 788.985 216.8 793.252 215.2C797.652 213.467 801.718 210.8 805.452 207.2L822.052 225.2C811.918 236.8 797.118 242.6 777.652 242.6C765.518 242.6 754.785 240.267 745.452 235.6C736.118 230.8 728.918 224.2 723.852 215.8C718.785 207.4 716.252 197.867 716.252 187.2C716.252 176.667 718.718 167.2 723.652 158.8C728.718 150.267 735.585 143.667 744.252 139C753.052 134.2 762.852 131.8 773.652 131.8C784.185 131.8 793.718 134.067 802.252 138.6C810.785 143.133 817.452 149.667 822.252 158.2C827.185 166.6 829.652 176.4 829.652 187.6ZM773.852 155.4C766.785 155.4 760.852 157.4 756.052 161.4C751.252 165.4 748.318 170.867 747.252 177.8H800.252C799.185 171 796.252 165.6 791.452 161.6C786.652 157.467 780.785 155.4 773.852 155.4ZM915.823 131.8C929.157 131.8 939.89 135.8 948.023 143.8C956.29 151.8 960.423 163.667 960.423 179.4V241H929.223V184.2C929.223 175.667 927.357 169.333 923.623 165.2C919.89 160.933 914.49 158.8 907.423 158.8C899.557 158.8 893.29 161.267 888.623 166.2C883.957 171 881.623 178.2 881.623 187.8V241H850.423V133.4H880.223V146C884.357 141.467 889.49 138 895.623 135.6C901.757 133.067 908.49 131.8 915.823 131.8ZM1058.1 235.8C1055.04 238.067 1051.24 239.8 1046.7 241C1042.3 242.067 1037.64 242.6 1032.7 242.6C1019.9 242.6 1009.97 239.333 1002.9 232.8C995.971 226.267 992.505 216.667 992.505 204V159.8H975.905V135.8H992.505V109.6H1023.7V135.8H1050.5V159.8H1023.7V203.6C1023.7 208.133 1024.84 211.667 1027.1 214.2C1029.5 216.6 1032.84 217.8 1037.1 217.8C1042.04 217.8 1046.24 216.467 1049.7 213.8L1058.1 235.8Z" fill="#E7205D"/>
</svg>
